<?xml version="1.0" standalone="no"?><!DOCTYPE svg PUBLIC "-//W3C//DTD SVG 1.1//EN" "http://www.w3.org/Graphics/SVG/1.1/DTD/svg11.dtd"><svg xmlns="http://www.w3.org/2000/svg" version="1.1" width="707.417" height="519.928" xmlns:xlink="http://www.w3.org/1999/xlink" xlink="http://www.w3.org/1999/xlink" style="position:relative;overflow:hidden;" viewBox="-7 41.667 707.417 519.928"><defs><filter id="f514a6eb-ff02-443d-8a89-0332c511fd9d" x="-0.5" y="-0.5" width="2" height="2"><feFlood flood-color="#000" flood-opacity="0.3" result="flood"/><feComposite in="flood" in2="SourceAlpha" operator="in" result="mask"/><feGaussianBlur in="mask" stdDeviation="2"/><feOffset dx="0.5" dy="0.5" result="oEffect0"/><feMerge><feMergeNode in="oEffect0"/><feMergeNode in="SourceGraphic"/></feMerge></filter></defs><g><g width="19" height="19" transform="scale(1,1) translate(132.167,57.167)"><g width="19" height="19" transform="scale(1,1) translate(0,0)" stroke="#B0CCE3" stroke-width="1" stroke-dasharray="none" fill="#000000" fill-opacity="1" stroke-opacity="1" filter="url(#f514a6eb-ff02-443d-8a89-0332c511fd9d)"><ellipse rx="9.5" ry="9.5" cx="9.5" cy="9.5"/></g></g><g width="83.167" height="145.375" transform="scale(1,1) translate(266.833,187.708)"><g fill="#7F7F7F" stroke="#7F7F7F" stroke-opacity="1" transform="scale(1,1) translate(0,0)"><path fill="none" stroke-width="2" stroke-dasharray="none" d="M0,0 A158.097,158.097 0 0,1 83.167,145.375"/><g><g stroke-dasharray="none"><path d="M89.551,133.575L83.167,145.375L77.557,133.188" stroke-width="1" fill="none"/></g></g></g><g stroke-width="0" stroke-dasharray="none" fill="#FFFFFF" opacity="1" width="83.806" height="17.833" transform="scale(1,1) translate(20.513,51.853)"><rect width="83.806" height="17.833"/></g><g width="100" height="145.375" transform="scale(1,1) translate(12.415,52.853)"><text width="100" height="15.833334922790527" transform="scale(1,1) translate(0,0)" xml:space="preserve"><tspan xml:space="preserve" text-rendering="optimizeSpeed" style="font-family: Arial, Helvetica Neue, Helvetica, sans-serif;" font-size="13.88888888888889" font-weight="normal" font-style="normal" text-decoration="none" fill="#000000" opacity="1" x="9.097" text-anchor="start" y="12.5" textLength="81.80555725097656">request room</tspan></text></g></g><g width="53.753" height="78.918" transform="scale(1,1) translate(150.164,70.915)"><g fill="#7F7F7F" stroke="#7F7F7F" stroke-opacity="1" transform="scale(1,1) translate(0,0)"><path fill="none" stroke-width="2" stroke-dasharray="none" d="M0,0 A91.171,91.171 0 0,1 53.753,78.918"/><g><g stroke-dasharray="none"><path d="M59.05,66.592L53.753,78.918L47.07,67.284" stroke-width="1" fill="none"/></g></g></g></g><g width="16.667" height="107.833" transform="scale(1,1) translate(350,383.583)"><g fill="#7F7F7F" stroke="#7F7F7F" stroke-opacity="1" transform="scale(1,1) translate(0,0)"><path fill="none" stroke-width="2" stroke-dasharray="none" d="M0,0 A65.198,65.198 0 0,1 16.667,107.833"/><g><g stroke-dasharray="none"><path d="M29.544,104.068L16.667,107.833L21.381,95.272" stroke-width="1" fill="none"/></g></g></g><g stroke-width="0" stroke-dasharray="none" fill="#FFFFFF" opacity="1" width="65.316" height="33.667" transform="scale(1,1) translate(4.829,32.577)"><rect width="65.316" height="33.667"/></g><g width="102.41537448214248" height="107.83333333333331" transform="scale(1,1) translate(-13.721,33.577)"><text width="102.41537448214248" height="31.666669845581055" transform="scale(1,1) translate(0,0)" xml:space="preserve"><tspan xml:space="preserve" text-rendering="optimizeSpeed" style="font-family: Arial, Helvetica Neue, Helvetica, sans-serif;" font-size="13.88888888888889" font-weight="normal" font-style="normal" text-decoration="none" fill="#000000" opacity="1" x="26.121" text-anchor="start" y="12.5" textLength="46.3194465637207">request</tspan><tspan xml:space="preserve" text-rendering="optimizeSpeed" style="font-family: Arial, Helvetica Neue, Helvetica, sans-serif;" font-size="13.88888888888889" font-weight="normal" font-style="normal" text-decoration="none" fill="#000000" opacity="1" x="19.55" text-anchor="start" y="28.333" textLength="63.31597137451172">accespted</tspan></text></g></g><g width="125.833" height="50.5" transform="scale(1,1) translate(141,149.833)"><g transform="scale(1,1) translate(0,0)" stroke="#CEE7E9" fill="#CEE7E9" fill-opacity="1" stroke-opacity="1"><path d="M0,10.1 a10.1,10.1 0 0,1 10.1,-10.1 l105.633,0 a10.1,10.1 0 0,1 10.1,10.1 l0,30.3 a10.1,10.1 0 0,1 -10.1,10.1 l-105.633,0 a10.1,10.1 0 0,1 -10.1,-10.1 z" stroke-width="1" stroke-dasharray="none"/></g><g width="115.03404761693332" height="39.7007142836" transform="scale(1,1) translate(5.4,5.4)"><text width="115.03404761693332" height="15.833334922790527" transform="scale(1,1) translate(0,11.933689680404736)" xml:space="preserve"><tspan xml:space="preserve" text-rendering="optimizeSpeed" style="font-family: Arial, Helvetica Neue, Helvetica, sans-serif;" font-size="13.88888888888889" font-weight="normal" font-style="normal" text-decoration="none" fill="#333333" opacity="1" x="29.453" text-anchor="start" y="12.5" textLength="56.12847137451172">Available</tspan></text></g></g><g width="131.292" height="316.333" transform="scale(1,1) translate(172.458,200.333)"><g fill="#7F7F7F" stroke="#7F7F7F" stroke-opacity="1" transform="scale(1,1) translate(0,0)"><path fill="none" stroke-width="2" stroke-dasharray="none" d="M0,0 A224.801,224.801 0 0,0 131.292,316.333"/><g><g stroke-dasharray="none"><path d="M-10.769,8.001L0,0L-0.061,13.416" stroke-width="1" fill="none"/></g></g></g><g stroke-width="0" stroke-dasharray="none" fill="#FFFFFF" opacity="1" width="42.156" height="17.833" transform="scale(1,1) translate(-28.551,179.597)"><rect width="42.156" height="17.833"/></g><g width="78.83333333333333" height="316.3333333333334" transform="scale(1,1) translate(-46.89,180.597)"><text width="78.83333333333333" height="15.833334922790527" transform="scale(1,1) translate(0,0)" xml:space="preserve"><tspan xml:space="preserve" text-rendering="optimizeSpeed" style="font-family: Arial, Helvetica Neue, Helvetica, sans-serif;" font-size="13.88888888888889" font-weight="normal" font-style="normal" text-decoration="none" fill="#000000" opacity="1" x="19.339" text-anchor="start" y="12.5" textLength="40.156253814697266">cancel</tspan></text></g></g><g width="125.833" height="50.5" transform="scale(1,1) translate(287.083,333.083)"><g transform="scale(1,1) translate(0,0)" stroke="#CEE7E9" fill="#CEE7E9" fill-opacity="1" stroke-opacity="1"><path d="M0,10.1 a10.1,10.1 0 0,1 10.1,-10.1 l105.633,0 a10.1,10.1 0 0,1 10.1,10.1 l0,30.3 a10.1,10.1 0 0,1 -10.1,10.1 l-105.633,0 a10.1,10.1 0 0,1 -10.1,-10.1 z" stroke-width="1" stroke-dasharray="none"/></g><g width="115.03404761693332" height="39.7007142836" transform="scale(1,1) translate(5.4,5.4)"><text width="115.03404761693332" height="15.833334922790527" transform="scale(1,1) translate(0,11.933689680404736)" xml:space="preserve"><tspan xml:space="preserve" text-rendering="optimizeSpeed" style="font-family: Arial, Helvetica Neue, Helvetica, sans-serif;" font-size="13.88888888888889" font-weight="normal" font-style="normal" text-decoration="none" fill="#333333" opacity="1" x="32.022" text-anchor="start" y="12.5" textLength="50.989585876464844">Pending</tspan></text></g></g><g width="125.833" height="50.5" transform="scale(1,1) translate(303.75,491.417)"><g transform="scale(1,1) translate(0,0)" stroke="#CEE7E9" fill="#CEE7E9" fill-opacity="1" stroke-opacity="1"><path d="M0,10.1 a10.1,10.1 0 0,1 10.1,-10.1 l105.633,0 a10.1,10.1 0 0,1 10.1,10.1 l0,30.3 a10.1,10.1 0 0,1 -10.1,10.1 l-105.633,0 a10.1,10.1 0 0,1 -10.1,-10.1 z" stroke-width="1" stroke-dasharray="none"/></g><g width="115.03404761693332" height="39.7007142836" transform="scale(1,1) translate(5.4,5.4)"><text width="115.03404761693332" height="15.833334922790527" transform="scale(1,1) translate(0,11.933689680404736)" xml:space="preserve"><tspan xml:space="preserve" text-rendering="optimizeSpeed" style="font-family: Arial, Helvetica Neue, Helvetica, sans-serif;" font-size="13.88888888888889" font-weight="normal" font-style="normal" text-decoration="none" fill="#333333" opacity="1" x="33.958" text-anchor="start" y="12.5" textLength="47.11805725097656">Booked</tspan></text></g></g><g width="83.167" height="158" transform="scale(1,1) translate(203.917,200.333)"><g fill="#7F7F7F" stroke="#7F7F7F" stroke-opacity="1" transform="scale(1,1) translate(0,0)"><path fill="none" stroke-width="2" stroke-dasharray="none" d="M83.167,158 A178.045,178.045 0 0,1 0,0"/><g><g stroke-dasharray="none"><path d="M-6.417,11.782L0,0L5.575,12.203" stroke-width="1" fill="none"/></g></g></g><g stroke-width="0" stroke-dasharray="none" fill="#FFFFFF" opacity="1" width="101.583" height="17.833" transform="scale(1,1) translate(-30.446,81.262)"><rect width="101.583" height="17.833"/></g><g width="100" height="158" transform="scale(1,1) translate(-29.654,82.262)"><text width="100" height="15.833334922790527" transform="scale(1,1) translate(0,0)" xml:space="preserve"><tspan xml:space="preserve" text-rendering="optimizeSpeed" style="font-family: Arial, Helvetica Neue, Helvetica, sans-serif;" font-size="13.88888888888889" font-weight="normal" font-style="normal" text-decoration="none" fill="#000000" opacity="1" x="0.208" text-anchor="start" y="12.5" textLength="99.58333587646484">request rejected</tspan></text></g></g><g width="159.792" height="331.917" transform="scale(1,1) translate(143.958,197.375)"><g fill="#7F7F7F" stroke="#7F7F7F" stroke-opacity="1" transform="scale(1,1) translate(0,0)"><path fill="none" stroke-width="2" stroke-dasharray="none" d="M0,0 A199,199 0 0,0 159.792,331.917"/><g><g stroke-dasharray="none"><path d="M-12.468,4.955L0,0L-3.517,12.947" stroke-width="1" fill="none"/></g></g></g><g stroke-width="0" stroke-dasharray="none" fill="#FFFFFF" opacity="1" width="41.878" height="17.833" transform="scale(1,1) translate(-52.468,210.684)"><rect width="41.878" height="17.833"/></g><g width="78.83333333333333" height="332.261108593299" transform="scale(1,1) translate(-70.945,211.684)"><text width="78.83333333333333" height="15.833334922790527" transform="scale(1,1) translate(0,0)" xml:space="preserve"><tspan xml:space="preserve" text-rendering="optimizeSpeed" style="font-family: Arial, Helvetica Neue, Helvetica, sans-serif;" font-size="13.88888888888889" font-weight="normal" font-style="normal" text-decoration="none" fill="#000000" opacity="1" x="19.477" text-anchor="start" y="12.5" textLength="39.878475189208984">modify</tspan></text></g></g><g width="165.708" height="363.875" transform="scale(1,1) translate(141,175.083)"><g fill="#7F7F7F" stroke="#7F7F7F" stroke-opacity="1" transform="scale(1,1) translate(0,0)"><path fill="none" stroke-width="2" stroke-dasharray="none" d="M0,0 A201.281,201.281 0 0,0 165.708,363.875"/><g><g stroke-dasharray="none"><path d="M-13.368,1.141L0,0L-7.108,11.379" stroke-width="1" fill="none"/></g></g></g><g stroke-width="0" stroke-dasharray="none" fill="#FFFFFF" opacity="1" width="69.969" height="17.833" transform="scale(1,1) translate(-114.006,246.739)"><rect width="69.969" height="17.833"/></g><g width="78.83333333333333" height="373.51137855526594" transform="scale(1,1) translate(-118.438,247.739)"><text width="78.83333333333333" height="15.833334922790527" transform="scale(1,1) translate(0,0)" xml:space="preserve"><tspan xml:space="preserve" text-rendering="optimizeSpeed" style="font-family: Arial, Helvetica Neue, Helvetica, sans-serif;" font-size="13.88888888888889" font-weight="normal" font-style="normal" text-decoration="none" fill="#000000" opacity="1" x="5.432" text-anchor="start" y="12.5" textLength="67.96875">done using</tspan></text></g></g><g width="125.833" height="50.5" transform="scale(1,1) translate(562.083,208.083)"><g transform="scale(1,1) translate(0,0)" stroke="#CEE7E9" fill="#CEE7E9" fill-opacity="1" stroke-opacity="1"><path d="M0,10.1 a10.1,10.1 0 0,1 10.1,-10.1 l105.633,0 a10.1,10.1 0 0,1 10.1,10.1 l0,30.3 a10.1,10.1 0 0,1 -10.1,10.1 l-105.633,0 a10.1,10.1 0 0,1 -10.1,-10.1 z" stroke-width="1" stroke-dasharray="none"/></g><g width="115.03404761693332" height="39.7007142836" transform="scale(1,1) translate(5.4,5.4)"><text width="115.03404761693332" height="15.833334922790527" transform="scale(1,1) translate(0,11.933689680404736)" xml:space="preserve"><tspan xml:space="preserve" text-rendering="optimizeSpeed" style="font-family: Arial, Helvetica Neue, Helvetica, sans-serif;" font-size="13.88888888888889" font-weight="normal" font-style="normal" text-decoration="none" fill="#333333" opacity="1" x="20.842" text-anchor="start" y="12.5" textLength="73.35069274902344">Deactivated</tspan></text></g></g><g width="295.25" height="58.25" transform="scale(1,1) translate(266.833,162.458)"><g fill="#7F7F7F" stroke="#7F7F7F" stroke-opacity="1" transform="scale(1,1) translate(0,0)"><path fill="none" stroke-width="2" stroke-dasharray="none" d="M0,0 A476.109,476.109 0 0,1 295.25,58.25"/><g><g stroke-dasharray="none"><path d="M287.753,47.124L295.25,58.25L281.851,57.572" stroke-width="1" fill="none"/></g></g></g><g stroke-width="0" stroke-dasharray="none" fill="#FFFFFF" opacity="1" width="100.802" height="17.833" transform="scale(1,1) translate(101.947,-3.733)"><rect width="100.802" height="17.833"/></g><g width="100" height="62.07001080132426" transform="scale(1,1) translate(102.348,-2.733)"><text width="100" height="15.833334922790527" transform="scale(1,1) translate(0,0)" xml:space="preserve"><tspan xml:space="preserve" text-rendering="optimizeSpeed" style="font-family: Arial, Helvetica Neue, Helvetica, sans-serif;" font-size="13.88888888888889" font-weight="normal" font-style="normal" text-decoration="none" fill="#000000" opacity="1" x="0.599" text-anchor="start" y="12.5" textLength="98.80208587646484">deactivate room</tspan></text></g></g><g width="295.25" height="58.25" transform="scale(1,1) translate(266.833,175.083)"><g fill="#7F7F7F" stroke="#7F7F7F" stroke-opacity="1" transform="scale(1,1) translate(0,0)"><path fill="none" stroke-width="2" stroke-dasharray="none" d="M295.25,58.25 A967.532,967.532 0 0,1 0,0"/><g><g stroke-dasharray="none"><path d="M9.216,9.75L0,0L13.33,-1.523" stroke-width="1" fill="none"/></g></g></g><g stroke-width="0" stroke-dasharray="none" fill="#FFFFFF" opacity="1" width="97.694" height="17.833" transform="scale(1,1) translate(96.499,31.758)"><rect width="97.694" height="17.833"/></g><g width="100" height="58.25" transform="scale(1,1) translate(95.346,32.758)"><text width="100" height="15.833334922790527" transform="scale(1,1) translate(0,0)" xml:space="preserve"><tspan xml:space="preserve" text-rendering="optimizeSpeed" style="font-family: Arial, Helvetica Neue, Helvetica, sans-serif;" font-size="13.88888888888889" font-weight="normal" font-style="normal" text-decoration="none" fill="#000000" opacity="1" x="2.153" text-anchor="start" y="12.5" textLength="95.69445037841797">reactivate room</tspan></text></g></g><g width="25.667" height="133.75" transform="scale(1,1) translate(599.333,74.333)"><g fill="#7F7F7F" stroke="#7F7F7F" stroke-opacity="1" transform="scale(1,1) translate(0,0)"><path fill="none" stroke-width="2" stroke-dasharray="none" d="M25.667,133.75 A133.201,133.201 0 0,0 0,0"/><g><g stroke-dasharray="none"><path d="M3.385,12.982L0,0L12.417,5.082" stroke-width="1" fill="none"/></g></g></g></g><g width="25" height="25" transform="scale(1,1) translate(579.167,54.167)"><g width="25" height="25"><g transform="scale(1.041665894014437,1.0416669288167906) translate(0,0)"><g><g width="23" height="23" transform="scale(1,1) translate(0.499,0.5)"><g width="23" height="23" transform="scale(1,1) translate(0,0)" stroke="#000000" stroke-width="1" stroke-dasharray="none" fill="none" stroke-opacity="1"><ellipse rx="11.5" ry="11.5" cx="11.5" cy="11.5"/></g></g><g width="11" height="11" transform="scale(1,1) translate(6.499,6.5)"><g width="11" height="11" transform="scale(1,1) translate(0,0)" stroke="#000000" stroke-width="1" stroke-dasharray="none" fill="#000000" fill-opacity="1" stroke-opacity="1"><ellipse rx="5.5" ry="5.5" cx="5.5" cy="5.5"/></g></g></g></g></g></g><g width="195.417" height="258.083" transform="scale(1,1) translate(429.583,258.583)"><g fill="#7F7F7F" stroke="#7F7F7F" stroke-opacity="1" transform="scale(1,1) translate(0,0)"><path fill="none" stroke-width="2" stroke-dasharray="none" d="M0,258.083 A240.224,240.224 0 0,0 195.417,0"/><g><g stroke-dasharray="none"><path d="M190.484,12.477L195.417,0L202.439,11.432" stroke-width="1" fill="none"/></g></g></g><g stroke-width="0" stroke-dasharray="none" fill="#FFFFFF" opacity="1" width="72.99" height="17.833" transform="scale(1,1) translate(111.214,157.984)"><rect width="72.99" height="17.833"/></g><g width="100" height="258.08333333333337" transform="scale(1,1) translate(97.709,158.984)"><text width="100" height="15.833334922790527" transform="scale(1,1) translate(0,0)" xml:space="preserve"><tspan xml:space="preserve" text-rendering="optimizeSpeed" style="font-family: Arial, Helvetica Neue, Helvetica, sans-serif;" font-size="13.88888888888889" font-weight="normal" font-style="normal" text-decoration="none" fill="#000000" opacity="1" x="14.505" text-anchor="start" y="12.5" textLength="70.98958587646484">repair room</tspan></text></g></g></g></svg>